# xmcd
#
# Track frame offsets:
#	150
#	14220
#	40835
#	59260
#	79725
#	100492
#	118790
#	136485
#	153857
#	169310
#	199470
#	222662
#	228147
#	245735
#
# Disc length: 3489 seconds
#
# Revision: 1
# Processed by: cddbd v1.5.2PL0 Copyright (c) Steve Scherf et al.
# Submitted via: EasyCDDAExtractor 11.5.3.1
#
DISCID=d00d9f0e
DTITLE=이현석 - Volumn3
DYEAR=2005
DGENRE=Metal
TTITLE0=After the rain
TTITLE1=The revelation\n
TTITLE2=머리가 길어 슬픈
TTITLE3=Living in danger\n
TTITLE4=방황속에서
TTITLE5=A new year's eve 
TTITLE6=A secret of 4.21
TTITLE7=세상만사 
TTITLE8=Carnival
TTITLE9=Crystal love\n
TTITLE10=영원한 사랑을 위해
TTITLE11=Reality in confusion I\n
TTITLE12=Reality in confusion II\n
TTITLE13=멈춰진 나 \n
EXTD=
EXTT0=
EXTT1=
EXTT2=
EXTT3=
EXTT4=
EXTT5=
EXTT6=
EXTT7=
EXTT8=
EXTT9=
EXTT10=
EXTT11=
EXTT12=
EXTT13=
PLAYORDER=
